<svg width="379" height="70" viewBox="0 0 379 70" fill="none" xmlns="http://www.w3.org/2000/svg">
<path d="M74.7973 69.5003C75.8603 69.5003 76.7301 68.6193 76.7301 67.5425V1.95775C76.7301 0.88099 75.8603 0 74.7973 0H53.827C52.6674 0 51.701 0.685216 51.4111 1.85987L38.8482 59.32L26.1887 1.85987C25.8988 0.685216 24.9324 0 23.7728 0H1.93275C0.869736 0 0 0.88099 0 1.95775V67.5425C0 68.6193 0.869736 69.5003 1.93275 69.5003H11.3066C12.3696 69.5003 13.2393 68.6193 13.2393 67.5425V8.22257L27.2517 67.6404C27.5416 68.8151 28.6047 69.5003 29.7643 69.5003H46.5792C47.7388 69.5003 48.7052 68.8151 48.9951 67.6404L62.9109 8.41835V67.5425C62.9109 68.6193 63.7806 69.5003 64.8437 69.5003H74.7973Z" fill="black"/>
<path d="M203.456 69.5003C204.53 69.5003 205.408 68.6193 205.408 67.5425V1.95775C205.408 0.88099 204.53 0 203.456 0H182.268C181.096 0 180.12 0.685216 179.827 1.85987L167.134 59.32L154.343 1.85987C154.05 0.685216 153.074 0 151.902 0H129.836C128.762 0 127.883 0.88099 127.883 1.95775V67.5425C127.883 68.6193 128.762 69.5003 129.836 69.5003H139.307C140.381 69.5003 141.259 68.6193 141.259 67.5425V8.22257L155.417 67.6404C155.71 68.8151 156.784 69.5003 157.956 69.5003H174.945C176.117 69.5003 177.093 68.8151 177.386 67.6404L191.446 8.41835V67.5425C191.446 68.6193 192.325 69.5003 193.399 69.5003H203.456Z" fill="black"/>
<path d="M272.942 69.5003C274.114 69.5003 274.797 68.4235 274.504 67.3468L256.636 1.95775C256.246 0.685217 255.172 0 254 0H233.3C232.129 0 231.055 0.685217 230.664 1.95775L212.699 67.3468C212.406 68.4235 213.089 69.5003 214.261 69.5003H225.099C226.27 69.5003 227.344 68.8151 227.637 67.5425L231.641 52.9573H254.684L258.589 67.5425C258.98 68.8151 260.054 69.5003 261.225 69.5003H272.942ZM251.95 41.3086H234.375L243.162 7.92891L251.95 41.3086Z" fill="black"/>
<path d="M326.235 60.1031C327.211 59.2221 326.723 57.558 325.356 57.558H298.017C295.771 57.558 294.209 55.9918 294.209 53.7404V1.95775C294.209 0.88099 293.33 0 292.256 0H280.247C279.173 0 278.294 0.88099 278.294 1.95775V54.6214C278.294 62.9418 284.933 69.5982 293.233 69.5982H309.929C313.639 69.5982 316.959 68.2278 319.693 65.7806L326.235 60.1031Z" fill="black"/>
<path d="M378.487 60.1031C379.463 59.2221 378.975 57.558 377.608 57.558H350.269C348.024 57.558 346.461 55.9918 346.461 53.7404V1.95775C346.461 0.88099 345.583 0 344.509 0H332.499C331.425 0 330.546 0.88099 330.546 1.95775V54.6214C330.546 62.9418 337.186 69.5982 345.485 69.5982H362.181C365.892 69.5982 369.211 68.2278 371.945 65.7806L378.487 60.1031Z" fill="black"/>
<path d="M108.065 41.7575C108.735 41.7575 109.283 41.1983 109.283 40.5147V29.0807C109.283 28.3972 108.735 27.8379 108.065 27.8379H96.5505C95.8803 27.8379 95.332 28.3972 95.332 29.0807V40.5147C95.332 41.1983 95.8803 41.7575 96.5505 41.7575H108.065Z" fill="black"/>
</svg>
